<svg xmlns="http://www.w3.org/2000/svg" xmlns:xlink="http://www.w3.org/1999/xlink" width="558.25" height="361.1201171875" viewBox="0 0 558.25 361.1201171875" fill="none">
    <path     fill="url(#linear_fill_x8oGNcqmsy_0)"  d="M17.24 0L460.76 0C470.143 0 477.75 7.60171 477.75 16.98L477.75 343.14C477.75 352.518 470.143 360.12 460.76 360.12L17.24 360.12C7.85662 360.12 0.25 352.518 0.25 343.14L0.25 16.98C0.25 7.60171 7.85662 0 17.24 0Z">
    </path>
    <path d="M0 344.09C0 353.494 7.62747 361.12 17.03 361.12L461.47 361.12C470.873 361.12 478.5 353.494 478.5 344.09L478.5 17.03C478.5 7.62644 470.873 0 461.47 0L17.03 0C7.62747 0 0 7.62644 0 17.03L0 344.09ZM461.47 1.79L17.03 1.79C8.61797 1.79 1.79 8.6159 1.79 17.03L1.79 344.09C1.79 352.504 8.61797 359.33 17.03 359.33L461.47 359.33C469.882 359.33 476.71 352.504 476.71 344.09L476.71 17.03C476.71 8.6159 469.882 1.79 461.47 1.79Z"   fill="url(#linear_fill_BXUs8drWEd)" >
    </path>
    <path     fill="#51CB9C"  d="M291.5 275.09L310.32 275.09C313.936 275.09 316.87 278.025 316.87 281.64L316.87 300.45C316.87 304.064 313.936 307 310.32 307L291.5 307C287.884 307 284.95 304.064 284.95 300.45L284.95 281.64C284.95 278.025 287.884 275.09 291.5 275.09Z">
    </path>
    <path d="M290.83 291.471L296.511 285.18L299.222 285.18L293.517 291.471L299.222 297.79L296.511 297.79L290.83 291.471ZM306.145 285.18L311.85 291.471L306.145 297.79L303.435 297.79L309.139 291.471L303.435 285.18L306.145 285.18Z"   fill="#FFFFFF" >
    </path>
    <path     fill="#1ABCFE"  d="M184.87 96.7803L203.69 96.7803C207.306 96.7803 210.24 99.7156 210.24 103.33L210.24 122.14C210.24 125.755 207.306 128.69 203.69 128.69L184.87 128.69C181.255 128.69 178.32 125.755 178.32 122.14L178.32 103.33C178.32 99.7156 181.255 96.7803 184.87 96.7803Z">
    </path>
    <path d="M189.052 120.619L200.819 120.619L200.819 111.245L196.46 111.245L193.798 107.172L189.052 107.172L189.052 120.619ZM194.935 105.07L186.95 105.07L186.95 122.72L202.92 122.72L202.92 109.143L197.597 109.143L194.935 105.07Z"   fill="#FFFFFF" >
    </path>
    <path     fill="#FFC04A"  d="M352.43 133.51L371.25 133.51C374.866 133.51 377.8 136.445 377.8 140.06L377.8 158.87C377.8 162.484 374.866 165.42 371.25 165.42L352.43 165.42C348.814 165.42 345.88 162.484 345.88 158.87L345.88 140.06C345.88 136.445 348.814 133.51 352.43 133.51Z">
    </path>
    <path d="M356.33 146.96C356.33 146.453 356.263 145.586 356.13 144.36C355.997 143.053 355.93 142.106 355.93 141.519C355.93 140.56 356.197 139.826 356.73 139.32C357.277 138.813 358.003 138.56 358.91 138.56L360.07 138.56L360.07 140.14L359.25 140.14C358.73 140.14 358.343 140.26 358.09 140.5C357.837 140.726 357.71 141.106 357.71 141.64C357.71 142.026 357.737 142.506 357.79 143.08C357.843 143.639 357.877 144.02 357.89 144.219C358.023 145.499 358.09 146.433 358.09 147.02C358.09 147.726 357.91 148.32 357.55 148.8C357.203 149.266 356.663 149.58 355.93 149.74L355.93 149.78C356.663 149.94 357.203 150.26 357.55 150.739C357.91 151.219 358.09 151.813 358.09 152.52C358.09 153.106 358.023 154.039 357.89 155.32C357.877 155.52 357.843 155.906 357.79 156.48C357.737 157.039 357.71 157.513 357.71 157.9C357.71 158.433 357.837 158.813 358.09 159.04C358.343 159.279 358.73 159.4 359.25 159.4L360.07 159.4L360.07 160.98L358.91 160.98C358.003 160.98 357.277 160.726 356.73 160.22C356.197 159.713 355.93 158.979 355.93 158.019C355.93 157.433 355.997 156.486 356.13 155.18C356.263 153.953 356.33 153.086 356.33 152.579C356.33 151.433 355.65 150.733 354.29 150.48L354.29 149.06C355.65 148.806 356.33 148.106 356.33 146.96Z"   fill="#1C1E53" >
    </path>
    <path d="M368.46 152.579C368.46 153.086 368.526 153.953 368.66 155.18C368.793 156.486 368.86 157.433 368.86 158.019C368.86 158.979 368.586 159.713 368.04 160.22C367.506 160.726 366.786 160.98 365.88 160.98L364.72 160.98L364.72 159.4L365.54 159.4C366.06 159.4 366.446 159.279 366.7 159.04C366.953 158.813 367.08 158.433 367.08 157.9C367.08 157.513 367.053 157.039 367 156.48C366.946 155.906 366.913 155.52 366.9 155.32C366.766 154.039 366.7 153.106 366.7 152.52C366.7 151.813 366.873 151.219 367.22 150.739C367.58 150.26 368.126 149.94 368.86 149.78L368.86 149.74C368.126 149.58 367.58 149.266 367.22 148.8C366.873 148.32 366.7 147.726 366.7 147.02C366.7 146.433 366.766 145.5 366.9 144.219C366.913 144.02 366.946 143.639 367 143.08C367.053 142.506 367.08 142.026 367.08 141.64C367.08 141.106 366.953 140.726 366.7 140.5C366.446 140.26 366.06 140.14 365.54 140.14L364.72 140.14L364.72 138.56L365.88 138.56C366.786 138.56 367.506 138.813 368.04 139.32C368.586 139.826 368.86 140.56 368.86 141.519C368.86 142.106 368.793 143.053 368.66 144.36C368.526 145.586 368.46 146.453 368.46 146.96C368.46 148.106 369.14 148.806 370.5 149.06L370.5 150.48C369.14 150.733 368.46 151.433 368.46 152.579Z"   fill="#1C1E53" >
    </path>
    <path d="M27.25 202.68C27.25 196.781 32.039 192 37.95 192L209.2 192C215.111 192 219.91 196.781 219.91 202.68L219.91 313.05C219.91 318.949 215.111 323.73 209.2 323.73L37.95 323.73C32.039 323.73 27.25 318.949 27.25 313.05L27.25 202.68Z"   fill="url(#linear_fill_iwzj7QRgg2)" >
    </path>
    <path d="M38.0036 192C32.0636 192 27.25 196.814 27.25 202.753L27.25 313.867C27.25 319.806 32.0636 324.62 38.0036 324.62L210.046 324.62C215.986 324.62 220.8 319.806 220.8 313.867L220.8 202.753C220.8 196.814 215.986 192 210.046 192L38.0036 192ZM29.0423 313.867C29.0423 318.817 33.0546 322.828 38.0036 322.828L210.046 322.828C214.995 322.828 219.008 318.817 219.008 313.867L219.008 202.753C219.008 197.803 214.995 193.792 210.046 193.792L38.0036 193.792C33.0546 193.792 29.0423 197.803 29.0423 202.753L29.0423 313.867Z"   fill="url(#linear_fill_fCr3ownNIZ)" >
    </path>
    <path     fill="#FFFFFF" fill-opacity="0.17" d="M49.55 241L99 241C101.926 241 104.3 243.38 104.3 246.31L104.3 302.91C104.3 305.841 101.926 308.22 99 308.22L49.55 308.22C46.6235 308.22 44.25 305.841 44.25 302.91L44.25 246.31C44.25 243.38 46.6235 241 49.55 241Z">
    </path>
    <path     fill="#FFFFFF" fill-opacity="0.6" d="M122.27 211L185.89 211C188.612 211 190.82 213.024 190.82 215.52C190.82 218.016 188.612 220.04 185.89 220.04L122.27 220.04C119.548 220.04 117.34 218.016 117.34 215.52C117.34 213.024 119.548 211 122.27 211Z">
    </path>
    <path     fill="#FFFFFF" fill-opacity="0.26" d="M122.18 238L185.8 238C188.522 238 190.73 240.024 190.73 242.52C190.73 245.016 188.522 247.04 185.8 247.04L122.18 247.04C119.458 247.04 117.25 245.016 117.25 242.52C117.25 240.024 119.458 238 122.18 238Z">
    </path>
    <path     fill="#767799"  d="M133.83 263L134.72 263C143.875 263 151.3 270.227 151.3 279.14C151.3 288.053 143.875 295.28 134.72 295.28L133.83 295.28C124.675 295.28 117.25 288.053 117.25 279.14C117.25 270.227 124.675 263 133.83 263Z">
    </path>
    <path     fill="url(#linear_fill_N2Hsh-zuW1_0)"  d="M29.12 15.2305L442.21 15.2305C452.358 15.2305 460.58 23.2565 460.58 33.1605C460.58 43.0641 452.358 51.1005 442.21 51.1005L29.12 51.1005C18.9718 51.1005 10.75 43.0641 10.75 33.1605C10.75 23.2565 18.9718 15.2305 29.12 15.2305Z">
    </path>
    <path     fill="url(#linear_fill_jbdp1XvqWg_0)"  d="M396.91 189.07L546.66 189.07C552.568 189.07 557.36 193.851 557.36 199.75L557.36 310.12C557.36 316.019 552.568 320.8 546.66 320.8L396.91 320.8C391.002 320.8 386.21 316.019 386.21 310.12L386.21 199.75C386.21 193.851 391.002 189.07 396.91 189.07Z">
    </path>
    <path d="M396.962 319.899L547.497 319.899C552.445 319.899 556.457 315.887 556.457 310.938L556.457 199.823C556.457 194.874 552.445 190.862 547.497 190.862L396.962 190.862C392.015 190.862 388.003 194.874 388.003 199.823L388.003 310.938C388.003 315.887 392.015 319.899 396.962 319.899ZM558.25 199.823C558.25 193.884 553.436 189.07 547.497 189.07L396.962 189.07C391.024 189.07 386.21 193.884 386.21 199.823L386.21 310.938C386.21 316.876 391.024 321.69 396.962 321.69L547.497 321.69C553.436 321.69 558.25 316.876 558.25 310.938L558.25 199.823Z"   fill="url(#linear_fill__kMJFo0eh8)" >
    </path>
    <path     fill="url(#linear_fill_km2Sg-ps68_0)"  d="M405.71 206.99L538.73 206.99C540.709 206.99 542.31 208.42 542.31 210.18C542.31 211.94 540.709 213.36 538.73 213.36L405.71 213.36C403.731 213.36 402.13 211.94 402.13 210.18C402.13 208.42 403.731 206.99 405.71 206.99Z">
    </path>
    <path     fill="url(#linear_fill_4_1_0)"  d="M405.714 213.364L538.725 213.364C540.705 213.364 542.31 211.937 542.31 210.177C542.31 208.417 540.705 206.99 538.725 206.99L405.714 206.99C403.735 206.99 402.13 208.417 402.13 210.177C402.13 211.937 403.735 213.364 405.714 213.364">
    </path>
    <path     fill="url(#linear_fill_KgvmoCgTmi_0)"  d="M405.71 224.91L448.73 224.91C450.709 224.91 452.31 226.34 452.31 228.1C452.31 229.86 450.709 231.28 448.73 231.28L405.71 231.28C403.73 231.28 402.13 229.86 402.13 228.1C402.13 226.34 403.73 224.91 405.71 224.91Z">
    </path>
    <path     fill="url(#linear_fill_lmbun2EcNI_0)"  d="M462.27 224.91L479 224.91C480.98 224.91 482.59 226.34 482.59 228.1C482.59 229.86 480.98 231.28 479 231.28L462.27 231.28C460.291 231.28 458.69 229.86 458.69 228.1C458.69 226.34 460.291 224.91 462.27 224.91Z">
    </path>
    <path     fill="url(#linear_fill_piBlZvbt3X_0)"  d="M405.71 296.6L448.73 296.6C450.709 296.6 452.31 298.03 452.31 299.79C452.31 301.55 450.709 302.97 448.73 302.97L405.71 302.97C403.73 302.97 402.13 301.55 402.13 299.79C402.13 298.03 403.73 296.6 405.71 296.6Z">
    </path>
    <path     fill="url(#linear_fill_RsjY2PG5_M_0)"  d="M462.27 296.6L479 296.6C480.98 296.6 482.59 298.03 482.59 299.79C482.59 301.55 480.98 302.97 479 302.97L462.27 302.97C460.291 302.97 458.69 301.55 458.69 299.79C458.69 298.03 460.291 296.6 462.27 296.6Z">
    </path>
    <path     fill="url(#linear_fill_OZIbRm-qef_0)"  d="M434.4 260.76L446.35 260.76C448.329 260.76 449.93 262.19 449.93 263.95C449.93 265.71 448.329 267.13 446.35 267.13L434.4 267.13C432.42 267.13 430.81 265.71 430.81 263.95C430.81 262.19 432.42 260.76 434.4 260.76Z">
    </path>
    <path     fill="url(#linear_fill_U9TeCPg46L_0)"  d="M460.67 260.76L511.65 260.76C513.629 260.76 515.23 262.19 515.23 263.95C515.23 265.71 513.629 267.13 511.65 267.13L460.67 267.13C458.691 267.13 457.09 265.71 457.09 263.95C457.09 262.19 458.691 260.76 460.67 260.76Z">
    </path>
    <path     fill="url(#linear_fill_e_XRvpuKkH_0)"  d="M405.71 260.76L422.44 260.76C424.42 260.76 426.03 262.19 426.03 263.95C426.03 265.71 424.42 267.13 422.44 267.13L405.71 267.13C403.73 267.13 402.13 265.71 402.13 263.95C402.13 262.19 403.73 260.76 405.71 260.76Z">
    </path>
    <path     fill="url(#linear_fill_JSSkpcyNe0_0)"  d="M405.71 242.83L463.86 242.83C465.839 242.83 467.44 244.26 467.44 246.02C467.44 247.78 465.839 249.2 463.86 249.2L405.71 249.2C403.73 249.2 402.13 247.78 402.13 246.02C402.13 244.26 403.73 242.83 405.71 242.83Z">
    </path>
    <path     fill="url(#linear_fill_IXLdAsRJli_0)"  d="M476.6 242.83L503.69 242.83C505.669 242.83 507.27 244.26 507.27 246.02C507.27 247.78 505.669 249.2 503.69 249.2L476.6 249.2C474.62 249.2 473.02 247.78 473.02 246.02C473.02 244.26 474.62 242.83 476.6 242.83Z">
    </path>
    <path     fill="url(#linear_fill_Z7uYuEQEMo_0)"  d="M405.71 278.68L463.86 278.68C465.839 278.68 467.44 280.11 467.44 281.87C467.44 283.63 465.839 285.05 463.86 285.05L405.71 285.05C403.73 285.05 402.13 283.63 402.13 281.87C402.13 280.11 403.73 278.68 405.71 278.68Z">
    </path>
    <path d="M43.5898 33.8052C43.5898 37.1989 40.8386 39.9502 37.4448 39.9502C34.051 39.9502 31.2998 37.1989 31.2998 33.8052C31.2998 30.4114 34.051 27.6602 37.4448 27.6602C40.8386 27.6602 43.5898 30.4114 43.5898 33.8052Z"   fill="#FED280" >
    </path>
    <path d="M65.0996 33.8052C65.0996 37.1989 62.3483 39.9502 58.9546 39.9502C55.5608 39.9502 52.8096 37.1989 52.8096 33.8052C52.8096 30.4114 55.5608 27.6602 58.9546 27.6602C62.3483 27.6602 65.0996 30.4114 65.0996 33.8052Z"   fill="#8CFEE3" fill-opacity="0.9">
    </path>
    <path d="M86.6201 33.8052C86.6201 37.1989 83.8688 39.9502 80.4751 39.9502C77.0813 39.9502 74.3301 37.1989 74.3301 33.8052C74.3301 30.4114 77.0813 27.6602 80.4751 27.6602C83.8688 27.6602 86.6201 30.4114 86.6201 33.8052Z"   fill="#FF8DA9" fill-opacity="0.9">
    </path>
    <path     fill="#FFFFFF"  d="M62.0195 274.819C63.5116 272.477 66.8775 272.331 68.5672 274.535L75.4221 283.474C76.9311 285.442 79.8487 285.577 81.5327 283.756L81.657 283.622C83.371 281.769 86.3516 281.947 87.8326 283.991L94.5215 293.223C96.4377 295.868 94.5482 299.57 91.2824 299.57L53.5414 299.57C50.3841 299.57 48.4714 296.083 50.1679 293.421L62.0195 274.819Z">
    </path>
    <path d="M97.9 255.83C97.9 259.047 95.297 261.65 92.08 261.65C88.863 261.65 86.25 259.047 86.25 255.83C86.25 252.613 88.863 250 92.08 250C95.297 250 97.9 252.613 97.9 255.83Z"   fill="#C4C5DC" >
    </path>
    <defs>
        <linearGradient id="linear_fill_x8oGNcqmsy_0" x1="239.5" y1="0" x2="362.6015625" y2="524.8935546875" gradientUnits="userSpaceOnUse">
            <stop offset="0" stop-color="#FFFFFF" stop-opacity="0.16" />
            <stop offset="1" stop-color="#C4C4C4" stop-opacity="0" />
        </linearGradient>
        <linearGradient id="linear_fill_BXUs8drWEd" x1="239.25" y1="0" x2="577.880859375" y2="244.8408203125" gradientUnits="userSpaceOnUse">
            <stop offset="0" stop-color="#000342" stop-opacity="0.5" />
            <stop offset="1" stop-color="#000000" stop-opacity="0" />
        </linearGradient>
        <linearGradient id="linear_fill_iwzj7QRgg2" x1="69.076171875" y1="227.611328125" x2="319.625" y2="526.005859375" gradientUnits="userSpaceOnUse">
            <stop offset="0" stop-color="#40416E"  />
            <stop offset="1" stop-color="#5A5B8B"  />
        </linearGradient>
        <linearGradient id="linear_fill_fCr3ownNIZ" x1="124.025390625" y1="192" x2="236.79296875" y2="521.9130859375" gradientUnits="userSpaceOnUse">
            <stop offset="0" stop-color="#FFFFFF" stop-opacity="0.17" />
            <stop offset="1" stop-color="#000000" stop-opacity="0" />
        </linearGradient>
        <linearGradient id="linear_fill_N2Hsh-zuW1_0" x1="235.6650390625" y1="15.23046875" x2="304.08203125" y2="224.6484375" gradientUnits="userSpaceOnUse">
            <stop offset="0" stop-color="#FFFFFF" stop-opacity="0.15" />
            <stop offset="1" stop-color="#C4C4C4" stop-opacity="0" />
        </linearGradient>
        <linearGradient id="linear_fill_jbdp1XvqWg_0" x1="717.8974609375" y1="535.765625" x2="278.3203125" y2="72.8232421875" gradientUnits="userSpaceOnUse">
            <stop offset="0" stop-color="#40416E"  />
            <stop offset="1" stop-color="#5A5B8B"  />
        </linearGradient>
        <linearGradient id="linear_fill__kMJFo0eh8" x1="472.2294921875" y1="189.0703125" x2="572.46484375" y2="518.9833984375" gradientUnits="userSpaceOnUse">
            <stop offset="0" stop-color="#FFFFFF" stop-opacity="0.17" />
            <stop offset="1" stop-color="#000000" stop-opacity="0" />
        </linearGradient>
        <linearGradient id="linear_fill_km2Sg-ps68_0" x1="472.2197265625" y1="206.990234375" x2="493.541015625" y2="247.859375" gradientUnits="userSpaceOnUse">
            <stop offset="0" stop-color="#FFFFFF" stop-opacity="0.56" />
            <stop offset="1" stop-color="#C4C4C4" stop-opacity="0" />
        </linearGradient>
        <linearGradient id="linear_fill_4_1_0" x1="472.2197265625" y1="206.990234375" x2="493.541015625" y2="247.859375" gradientUnits="userSpaceOnUse">
            <stop offset="0" stop-color="#FFFFFF" stop-opacity="0.56" />
            <stop offset="1" stop-color="#C4C4C4" stop-opacity="0" />
        </linearGradient>
        <linearGradient id="linear_fill_KgvmoCgTmi_0" x1="427.2197265625" y1="224.91015625" x2="434.8515625" y2="265.779296875" gradientUnits="userSpaceOnUse">
            <stop offset="0" stop-color="#F9C746" stop-opacity="0.52" />
            <stop offset="1" stop-color="#C4C4C4" stop-opacity="0" />
        </linearGradient>
        <linearGradient id="linear_fill_lmbun2EcNI_0" x1="470.640625" y1="224.91015625" x2="474.275390625" y2="265.779296875" gradientUnits="userSpaceOnUse">
            <stop offset="0" stop-color="#84EBE5" stop-opacity="0.62" />
            <stop offset="1" stop-color="#C4C4C4" stop-opacity="0" />
        </linearGradient>
        <linearGradient id="linear_fill_piBlZvbt3X_0" x1="427.2197265625" y1="296.599609375" x2="434.8515625" y2="337.46875" gradientUnits="userSpaceOnUse">
            <stop offset="0" stop-color="#FFFFFF" stop-opacity="0.56" />
            <stop offset="1" stop-color="#C4C4C4" stop-opacity="0" />
        </linearGradient>
        <linearGradient id="linear_fill_RsjY2PG5_M_0" x1="470.640625" y1="296.599609375" x2="474.275390625" y2="337.46875" gradientUnits="userSpaceOnUse">
            <stop offset="0" stop-color="#F47D9E"  />
            <stop offset="1" stop-color="#C4C4C4" stop-opacity="0" />
        </linearGradient>
        <linearGradient id="linear_fill_OZIbRm-qef_0" x1="440.369140625" y1="260.759765625" x2="443.27734375" y2="301.62890625" gradientUnits="userSpaceOnUse">
            <stop offset="0" stop-color="#F2C87D"  />
            <stop offset="1" stop-color="#C4C4C4" stop-opacity="0" />
        </linearGradient>
        <linearGradient id="linear_fill_U9TeCPg46L_0" x1="486.16015625" y1="260.759765625" x2="495.0029296875" y2="301.62890625" gradientUnits="userSpaceOnUse">
            <stop offset="0" stop-color="#FFFFFF" stop-opacity="0.62" />
            <stop offset="1" stop-color="#C4C4C4" stop-opacity="0" />
        </linearGradient>
        <linearGradient id="linear_fill_e_XRvpuKkH_0" x1="408.5029296875" y1="258.966796875" x2="439.9716796875" y2="301.0908203125" gradientUnits="userSpaceOnUse">
            <stop offset="0" stop-color="#F37D9D"  />
            <stop offset="1" stop-color="#C4C4C4" stop-opacity="0" />
        </linearGradient>
        <linearGradient id="linear_fill_JSSkpcyNe0_0" x1="434.78515625" y1="242.830078125" x2="444.7177734375" y2="283.69921875" gradientUnits="userSpaceOnUse">
            <stop offset="0" stop-color="#FFFFFF" stop-opacity="0.58" />
            <stop offset="1" stop-color="#C4C4C4" stop-opacity="0" />
        </linearGradient>
        <linearGradient id="linear_fill_IXLdAsRJli_0" x1="490.14453125" y1="242.830078125" x2="495.353515625" y2="283.69921875" gradientUnits="userSpaceOnUse">
            <stop offset="0" stop-color="#FFFFFF" stop-opacity="0.45" />
            <stop offset="1" stop-color="#C4C4C4" stop-opacity="0" />
        </linearGradient>
        <linearGradient id="linear_fill_Z7uYuEQEMo_0" x1="434.78515625" y1="278.6796875" x2="444.7177734375" y2="319.548828125" gradientUnits="userSpaceOnUse">
            <stop offset="0" stop-color="#70D1E7"  />
            <stop offset="1" stop-color="#C4C4C4" stop-opacity="0" />
        </linearGradient>
    </defs>
</svg>
